# xmcd CD database file
# Copyright (C) 1993-1996 Ti Kan
#
# Track frame offsets:
#	150
#	11527
#	22215
#	35540
#	46110
#	59447
#	68827
#	77275
#	89670
#	98687
#	112517
#	123720
#
# Disc length: 1795 seconds
#
# Revision: 1
# Processed by: cddbd v1.4b41PL1 Copyright (c) Steve Scherf et al.
# Submitted via: CDValet v3.31 - Copyright (c) 1997 Greg Leichner
#
DISCID=9007010c
DTITLE=Hank Ballard and The Midnighters - Mr. Rythm And Blues 
DYEAR=1900
DGENRE=
TTITLE0=Look At Little Sister
TTITLE1=Waiting
TTITLE2=Never Knew
TTITLE3=Don't Go, I Love You 
TTITLE4=Young Lady
TTITLE5=Give It Up
TTITLE6=Finger Poppin' Time
TTITLE7=The Coffee Grind
TTITLE8=I Said I Wouldn't Beg You
TTITLE9=I Could Love You
TTITLE10=Why Are We Apart
TTITLE11=I Love, I Love So-o-o 
EXTD=
EXTT0=
EXTT1=
EXTT2=
EXTT3=
EXTT4=
EXTT5=
EXTT6=
EXTT7=
EXTT8=
EXTT9=
EXTT10=
EXTT11=
PLAYORDER=
